<?xml version="1.0" standalone="no"?>
<!DOCTYPE svg PUBLIC "-//W3C//DTD SVG 20010904//EN"
 "http://www.w3.org/TR/2001/REC-SVG-20010904/DTD/svg10.dtd">
<svg version="1.0" xmlns="http://www.w3.org/2000/svg"
 width="1032.000000pt" height="120.000000pt" viewBox="0 0 1032.000000 120.000000"
 preserveAspectRatio="xMidYMid meet">

<g transform="translate(0.000000,120.000000) scale(0.100000,-0.100000)"
fill="#000000" stroke="none">
<path d="M575 1021 c-80 -5 -100 -9 -100 -21 0 -8 7 -14 17 -12 9 1 19 -2 23
-8 8 -13 52 -13 60 0 5 7 11 8 19 1 6 -5 62 -11 124 -13 81 -2 112 -6 112 -15
0 -18 37 -16 43 1 4 11 22 13 79 9 122 -7 205 1 229 23 9 8 24 12 33 8 11 -4
16 -1 16 10 0 14 -28 16 -257 16 -142 0 -267 2 -278 3 -11 2 -65 1 -120 -2z"/>
<path d="M3381 994 c-20 -26 -28 -74 -14 -88 4 -3 12 8 17 26 10 30 15 33 56
36 l45 3 -41 -43 c-56 -58 -64 -77 -64 -145 0 -76 25 -117 86 -144 53 -24 107
-19 168 15 l39 21 14 -22 c19 -29 43 -29 73 -1 l23 22 -21 14 c-21 13 -22 23
-22 134 0 89 4 127 16 150 16 30 16 31 -8 25 -15 -4 -33 0 -48 10 -22 16 -24
15 -51 -18 -16 -19 -29 -37 -29 -41 0 -12 18 -10 25 2 10 17 35 -9 35 -35 0
-40 -11 -55 -40 -55 -39 0 -48 16 -48 88 0 35 -2 65 -4 67 -2 3 -19 -1 -36 -7
-24 -10 -39 -9 -65 0 -53 19 -83 15 -106 -14z m189 -189 l0 -135 -24 0 c-42 0
-49 23 -16 54 29 27 30 31 30 122 0 52 2 94 5 94 3 0 5 -61 5 -135z m-75 -42
c-12 -79 -55 -40 -55 48 0 42 11 71 39 103 15 17 16 14 19 -45 2 -35 0 -83 -3
-106z m183 65 c-3 -7 -20 -13 -38 -13 -18 0 -35 6 -37 13 -3 8 8 12 37 12 29
0 40 -4 38 -12z m-10 -40 c7 -7 12 -25 12 -40 0 -21 -8 -33 -32 -48 -18 -11
-37 -18 -43 -17 -14 5 -17 75 -4 98 11 21 49 25 67 7z"/>
<path d="M6555 991 c-71 -41 -102 -75 -110 -122 -4 -24 -14 -43 -23 -46 -41
-15 -72 -61 -32 -48 34 11 59 -4 69 -42 13 -46 1 -69 -41 -78 -18 -4 -39 -12
-45 -17 -18 -14 -16 -48 2 -48 8 0 15 4 15 8 0 5 23 8 51 8 44 -1 54 3 75 27
20 24 24 39 24 98 0 55 3 71 16 76 41 16 66 -39 45 -100 -10 -28 -9 -33 16
-54 16 -12 33 -22 38 -22 6 -1 28 15 50 33 32 28 38 37 28 47 -15 15 -17 95
-3 104 6 3 10 15 10 26 0 10 -4 19 -10 19 -5 0 -10 25 -10 55 0 38 4 55 13 55
32 0 37 -24 37 -163 0 -175 13 -202 75 -161 28 18 33 44 10 44 -8 0 -17 11
-20 23 -8 31 -1 226 9 255 7 18 5 22 -13 22 -12 0 -33 7 -46 16 -24 16 -27 15
-66 -10 l-41 -27 -23 25 c-30 33 -39 32 -100 -3z m50 -65 c9 -55 2 -66 -36
-66 -27 0 -29 3 -29 36 0 45 15 74 40 74 15 0 20 -10 25 -44z m95 -26 c0 -29
-4 -40 -15 -40 -11 0 -15 11 -15 40 0 29 4 40 15 40 11 0 15 -11 15 -40z
m-193 -177 c-2 -32 -3 -6 -3 57 0 63 1 89 3 58 2 -32 2 -84 0 -115z m193 21
c0 -73 -24 -70 -28 4 -2 42 0 52 12 52 13 0 16 -12 16 -56z"/>
<path d="M4152 988 c-14 -14 -16 -48 -2 -48 10 0 30 32 30 49 0 14 -13 14 -28
-1z"/>
<path d="M5208 975 c-16 -34 -1 -45 23 -16 23 28 24 41 4 41 -9 0 -21 -11 -27
-25z"/>
<path d="M6126 981 c-15 -9 -29 -27 -32 -41 -3 -14 -11 -35 -17 -48 -9 -18 -8
-25 2 -31 10 -6 12 -33 10 -106 -4 -94 -3 -97 21 -110 33 -19 40 -18 70 5 l25
19 -28 10 c-26 10 -27 12 -27 95 0 75 2 84 20 89 11 3 20 10 20 15 0 6 -9 14
-20 17 -29 9 -27 47 3 43 17 -2 23 2 25 23 2 21 -2 27 -22 31 -13 3 -36 -2
-50 -11z"/>
<path d="M7640 988 c-13 -5 -35 -6 -48 -3 -21 5 -22 3 -15 -22 9 -31 11 -209
3 -263 -5 -32 -3 -35 28 -41 19 -4 39 -12 45 -18 17 -17 33 -14 78 14 l40 26
-5 96 c-6 117 -18 138 -67 110 -17 -9 -35 -17 -40 -17 -13 0 -11 84 2 97 19
19 6 31 -21 21z m58 -222 c3 -76 2 -77 -20 -74 -21 3 -23 9 -26 66 -2 39 2 69
9 78 23 28 34 8 37 -70z"/>
<path d="M8117 993 c-9 -8 -9 -53 -1 -53 10 0 33 33 34 48 0 13 -22 17 -33 5z"/>
<path d="M4258 956 c-31 -23 -40 -63 -22 -98 11 -22 15 -52 13 -111 -3 -64 0
-81 11 -85 8 -2 30 -11 48 -19 30 -15 35 -14 77 8 l45 24 0 90 c0 126 -25 160
-83 115 l-26 -20 -27 35 c-20 27 -24 39 -16 47 26 26 9 37 -20 14z m106 -122
c3 -9 6 -45 6 -80 0 -65 0 -65 -27 -62 -27 3 -28 6 -31 64 -2 46 1 66 13 78
21 20 31 20 39 0z"/>
<path d="M5324 915 c-27 -34 -34 -49 -25 -54 9 -6 12 -36 10 -101 -2 -87 0
-94 22 -111 30 -23 38 -23 68 0 l24 19 -21 11 c-20 11 -22 20 -22 96 0 78 1
84 22 87 30 4 34 26 6 30 -16 2 -24 11 -26 28 -6 44 -18 43 -58 -5z"/>
<path d="M5074 916 c8 -32 -2 -37 -50 -25 -35 9 -45 7 -77 -11 -35 -21 -37
-25 -37 -74 0 -47 3 -54 26 -64 l25 -12 -32 -45 c-35 -49 -33 -65 6 -47 18 8
33 9 52 1 23 -9 35 -7 71 12 41 23 42 25 42 74 0 43 -4 53 -25 65 l-25 15 30
45 c36 54 40 90 9 90 -17 0 -20 -4 -15 -24z m-44 -91 c0 -6 -8 -19 -18 -28
-14 -13 -21 -14 -30 -5 -12 12 -16 41 -7 50 10 9 55 -4 55 -17z m8 -108 c3
-24 0 -27 -27 -27 -33 0 -37 9 -20 41 15 28 43 20 47 -14z"/>
<path d="M3831 879 c-21 -20 -22 -23 -6 -31 14 -9 16 -23 14 -102 -4 -96 1
-116 30 -116 26 0 52 32 41 50 -17 26 -12 137 6 155 30 29 39 12 44 -86 7
-123 20 -142 70 -101 20 16 21 19 6 31 -12 10 -16 32 -16 92 0 43 5 81 10 84
18 11 10 20 -31 33 -36 11 -44 11 -59 -3 -21 -19 -34 -19 -50 0 -17 20 -32 19
-59 -6z"/>
<path d="M4110 890 c-12 -7 -14 -29 -12 -107 4 -144 29 -186 78 -132 17 19 18
21 1 30 -14 8 -17 24 -17 80 0 38 6 78 12 89 11 16 9 22 -7 34 -23 18 -35 19
-55 6z"/>
<path d="M4533 878 l-42 -21 -3 -94 -3 -94 41 -19 c22 -11 44 -20 49 -20 11 0
75 43 75 51 0 3 -19 5 -42 5 -39 -1 -43 2 -46 24 -2 20 7 33 48 63 27 20 50
42 50 47 0 14 -61 80 -74 79 -6 0 -30 -10 -53 -21z m57 -82 c-20 -25 -30 -19
-30 21 l0 37 22 -21 c18 -18 19 -24 8 -37z"/>
<path d="M4716 885 c-17 -13 -18 -18 -6 -39 9 -17 11 -50 8 -105 l-5 -80 33
-17 c30 -17 34 -17 58 0 26 17 27 36 1 36 -18 0 -25 23 -25 89 0 67 14 89 42
64 18 -16 20 -16 38 3 19 19 19 20 0 44 -17 23 -20 23 -45 10 -21 -11 -30 -12
-45 -2 -25 15 -31 15 -54 -3z"/>
<path d="M5166 885 c-12 -9 -15 -18 -10 -27 5 -7 11 -58 14 -112 6 -114 17
-132 64 -101 26 17 27 20 11 31 -14 11 -17 27 -14 109 3 77 1 98 -11 105 -20
13 -32 12 -54 -5z"/>
<path d="M5470 878 c-21 -20 -22 -23 -7 -26 15 -3 17 -16 17 -95 -1 -65 -5
-98 -15 -111 -18 -24 -19 -58 -3 -74 18 -18 97 -15 105 3 9 24 -5 30 -25 12
-22 -20 -43 -22 -60 -5 -23 23 -12 37 60 85 110 72 140 132 103 203 -18 35
-33 37 -67 10 -25 -19 -26 -19 -43 0 -23 26 -36 25 -65 -2z m125 -58 c9 -29
-3 -75 -26 -96 -19 -17 -19 -16 -19 43 0 33 3 63 7 66 13 13 32 7 38 -13z"/>
<path d="M5888 879 l-38 -19 -1 -85 c-1 -47 -2 -90 -3 -96 -1 -6 21 -20 47
-31 l49 -21 44 21 44 22 0 95 0 95 -40 20 c-48 24 -55 24 -102 -1z m66 -45
c11 -11 16 -35 16 -80 l0 -65 -27 3 c-27 3 -28 5 -31 67 -4 90 7 111 42 75z"/>
<path d="M6935 884 c-16 -12 -18 -18 -7 -34 7 -12 12 -55 12 -103 0 -69 3 -87
18 -100 24 -22 28 -21 60 3 l25 20 22 -20 c27 -25 37 -25 60 0 15 16 15 22 5
35 -9 10 -11 42 -8 106 4 82 2 91 -15 101 -14 7 -26 7 -41 -1 -19 -11 -21 -18
-18 -99 3 -70 1 -91 -12 -101 -30 -25 -38 -3 -34 96 2 75 0 96 -12 103 -20 13
-32 12 -55 -6z"/>
<path d="M7198 886 c-21 -15 -23 -33 -6 -38 16 -6 24 -139 9 -165 -15 -30 19
-61 52 -46 22 10 23 15 19 100 -3 72 -1 91 11 102 31 25 39 3 35 -97 -3 -90
-2 -95 20 -105 30 -14 66 16 52 44 -17 30 -12 135 6 154 30 30 39 12 44 -90 6
-113 18 -132 65 -101 25 17 26 19 10 36 -13 15 -16 34 -13 97 2 43 8 86 12 96
7 14 5 16 -9 11 -9 -4 -27 -1 -41 6 -21 12 -27 11 -49 -10 l-25 -23 -23 21
c-28 27 -32 27 -66 3 -27 -20 -28 -20 -44 0 -20 22 -35 24 -59 5z"/>
<path d="M7860 888 c-14 -7 -27 -13 -29 -15 -2 -1 2 -16 9 -32 11 -27 9 -35
-10 -66 -28 -45 -30 -97 -5 -125 22 -25 33 -25 65 0 25 19 25 19 47 -2 20 -19
26 -20 48 -8 29 15 31 25 10 46 -10 11 -13 33 -11 87 2 39 7 82 11 93 6 18 3
22 -17 22 -12 0 -39 2 -58 6 -19 3 -46 0 -60 -6z m34 -38 c26 -9 36 -43 17
-55 -10 -5 -51 40 -51 56 0 11 3 11 34 -1z m14 -82 c16 -16 15 -63 -2 -77 -17
-14 -46 10 -46 39 0 45 23 63 48 38z"/>
<path d="M8074 890 c-13 -13 -6 -216 8 -242 12 -23 30 -23 59 2 22 19 23 21 7
30 -15 9 -18 25 -18 83 0 40 5 79 10 87 19 30 -40 66 -66 40z"/>
<path d="M1094 755 c-9 -14 -23 -25 -30 -25 -10 0 -14 -13 -14 -44 0 -55 -17
-70 -67 -62 -21 3 -43 3 -49 -1 -13 -9 -7 -73 7 -73 5 0 9 -6 9 -13 0 -23 45
-40 84 -33 36 7 47 21 24 29 -7 2 -23 -3 -36 -11 -21 -13 -25 -13 -39 1 -9 9
-13 23 -9 33 5 13 14 15 43 11 26 -5 42 -1 59 12 25 20 76 17 95 -5 6 -8 22
-14 35 -14 20 0 24 5 24 29 0 31 -18 41 -78 41 l-32 0 2 70 c1 52 5 69 14 66
7 -3 25 -1 41 4 25 7 23 8 -19 9 -40 1 -50 -3 -64 -24z m-4 -80 c0 -25 -4 -45
-10 -45 -5 0 -10 20 -10 45 0 25 5 45 10 45 6 0 10 -20 10 -45z"/>
<path d="M613 613 c4 -3 0 -17 -8 -29 -17 -27 -7 -37 28 -29 15 4 28 1 36 -9
13 -16 51 -22 51 -10 0 8 -40 46 -72 68 -22 16 -48 22 -35 9z"/>
<path d="M520 554 c0 -13 5 -24 10 -24 6 0 10 6 10 14 0 8 6 16 12 18 7 3 2 7
-10 10 -18 5 -22 2 -22 -18z"/>
<path d="M767 563 c-13 -13 -7 -21 13 -16 11 3 20 9 20 14 0 10 -24 12 -33 2z"/>
<path d="M1098 503 c12 -2 30 -2 40 0 9 3 -1 5 -23 4 -22 0 -30 -2 -17 -4z"/>
<path d="M660 481 c-57 -11 -67 -22 -34 -36 24 -10 35 -9 64 6 63 33 68 39 35
38 -16 -1 -46 -4 -65 -8z"/>
<path d="M509 433 c17 -34 13 -43 -19 -43 -28 0 -30 -3 -30 -34 0 -19 -4 -37
-9 -41 -5 -3 -8 -17 -7 -31 2 -21 19 -34 110 -80 59 -30 117 -54 130 -54 12 0
27 -5 34 -12 8 -8 51 -12 130 -13 137 0 190 14 326 85 98 52 116 72 93 98 -22
26 -30 61 -17 77 9 11 5 14 -22 13 -18 0 -49 2 -68 5 -78 14 -75 15 -77 -23
-1 -23 -9 -41 -25 -54 l-23 -19 30 7 c17 4 44 18 62 32 34 26 78 33 71 12 -7
-20 -196 -114 -253 -127 -101 -22 -168 -10 -308 54 -70 32 -127 62 -127 67 0
15 32 22 49 10 81 -59 161 -89 161 -62 0 6 7 10 15 10 8 0 15 5 15 11 0 6 -9
9 -20 6 -11 -3 -23 -1 -26 4 -3 6 -11 5 -20 -2 -22 -18 -45 7 -42 45 3 27 0
31 -22 30 -14 -1 -32 -4 -41 -8 -11 -5 -27 4 -49 26 -23 23 -29 27 -21 11z
m39 -152 c9 -5 3 -8 -18 -9 -17 0 -28 4 -25 9 8 11 26 11 43 0z m606 -15 c-4
-9 -13 -15 -20 -12 -8 3 -14 -1 -14 -9 0 -8 -7 -15 -15 -15 -21 0 -19 29 3 36
9 3 24 9 32 14 19 10 22 7 14 -14z m-424 -66 c0 -5 -4 -10 -10 -10 -5 0 -10 5
-10 10 0 6 5 10 10 10 6 0 10 -4 10 -10z m60 -14 c0 -11 -19 -15 -25 -6 -3 5
1 10 9 10 9 0 16 -2 16 -4z m95 -5 c3 -5 1 -12 -5 -16 -5 -3 -10 1 -10 9 0 18
6 21 15 7z"/>
<path d="M1185 430 c-3 -5 -1 -10 4 -10 6 0 11 5 11 10 0 6 -2 10 -4 10 -3 0
-8 -4 -11 -10z"/>
<path d="M1288 403 c12 -2 30 -2 40 0 9 3 -1 5 -23 4 -22 0 -30 -2 -17 -4z"/>
<path d="M307 369 c-25 -19 -26 -21 -11 -44 14 -22 18 -23 31 -10 8 8 11 19 8
25 -3 5 1 10 9 10 10 0 13 -6 10 -15 -4 -10 0 -15 15 -15 20 0 20 1 3 35 -20
40 -30 42 -65 14z"/>
<path d="M1340 365 c-15 -28 -4 -50 11 -22 13 23 26 22 34 -4 7 -20 8 -20 23
-5 21 21 5 50 -30 54 -17 2 -28 -4 -38 -23z"/>
<path d="M1303 308 c-6 -7 -7 -22 -3 -33 6 -17 8 -15 13 10 6 35 4 40 -10 23z"/>
<path d="M4304 306 c-3 -7 -4 -40 -2 -72 l3 -59 53 -3 c59 -3 73 15 15 20 -30
2 -38 7 -38 23 0 15 8 21 33 23 44 4 41 22 -4 22 -28 0 -35 3 -32 18 2 10 13
17 28 18 44 2 50 4 50 14 0 16 -100 12 -106 -4z"/>
<path d="M4440 311 c0 -5 8 -23 17 -39 16 -28 16 -30 -5 -59 -12 -17 -22 -34
-22 -37 0 -14 23 -4 40 16 l18 23 26 -24 c35 -32 43 -20 17 23 l-21 34 21 36
c24 41 16 46 -19 14 l-24 -23 -15 23 c-16 22 -33 29 -33 13z"/>
<path d="M4623 308 c-16 -20 -53 -125 -46 -131 3 -3 18 3 33 15 23 16 31 18
49 9 11 -7 21 -16 21 -21 0 -6 5 -10 11 -10 15 0 7 40 -20 103 -21 49 -31 56
-48 35z m27 -78 c-19 -12 -35 3 -26 26 6 17 8 17 24 0 15 -15 15 -18 2 -26z"/>
<path d="M4735 297 c-10 -37 -1 -120 13 -125 8 -2 12 8 12 32 0 46 15 46 30 1
15 -46 28 -44 47 5 18 46 33 44 33 -6 0 -19 5 -34 10 -34 6 0 10 32 10 75 0
67 -2 75 -19 75 -14 0 -23 -11 -31 -37 -19 -59 -28 -60 -49 -10 -22 51 -47 61
-56 24z"/>
<path d="M4929 300 c-1 -11 -1 -38 -1 -60 0 -61 1 -70 12 -70 6 0 10 32 10 75
0 43 -4 75 -10 75 -5 0 -11 -9 -11 -20z"/>
<path d="M4990 244 c0 -56 3 -75 13 -72 6 3 14 24 17 49 l5 44 24 -40 c48 -78
61 -74 61 20 0 43 -4 75 -10 75 -5 0 -10 -18 -10 -39 0 -22 -4 -42 -8 -45 -4
-2 -20 15 -36 40 -42 67 -56 59 -56 -32z"/>
<path d="M5193 308 c-17 -23 -56 -129 -49 -135 3 -4 16 3 29 15 29 28 41 28
67 0 30 -32 36 -14 15 45 -31 89 -41 102 -62 75z m22 -76 c-22 -5 -29 3 -21
25 7 17 8 17 22 -2 13 -18 13 -20 -1 -23z"/>
<path d="M5270 311 c0 -5 9 -11 19 -14 16 -4 20 -15 23 -63 4 -82 28 -86 28
-5 0 34 4 61 8 61 5 0 17 7 28 15 17 13 14 14 -43 15 -35 0 -63 -4 -63 -9z"/>
<path d="M5414 306 c-8 -22 0 -126 11 -129 6 -1 11 29 13 71 2 46 -1 72 -8 72
-6 0 -13 -6 -16 -14z"/>
<path d="M5490 300 c-44 -44 -13 -130 48 -130 33 0 45 8 61 37 39 74 -51 151
-109 93z m71 -10 c13 -7 19 -21 19 -43 0 -57 -45 -77 -74 -35 -21 30 -20 44 4
68 23 23 25 23 51 10z"/>
<path d="M5644 306 c-8 -22 0 -126 11 -129 6 -1 11 15 13 36 2 20 7 37 11 37
5 0 20 -18 35 -41 37 -56 51 -47 51 34 0 67 -17 99 -23 42 -6 -60 -12 -61 -43
-12 -30 48 -46 58 -55 33z"/>
<path d="M5864 306 c-3 -7 -4 -39 -2 -71 3 -64 25 -88 30 -33 3 29 6 33 33 33
27 0 30 -4 33 -33 2 -20 8 -32 15 -29 17 5 16 139 0 145 -9 2 -13 -7 -13 -28
0 -29 -2 -31 -32 -28 -28 2 -34 8 -36 31 -4 29 -19 36 -28 13z"/>
<path d="M6054 283 c-38 -89 -42 -101 -37 -107 3 -3 17 4 31 14 31 25 37 25
63 -1 12 -12 25 -17 29 -12 11 11 -42 143 -58 143 -7 0 -20 -17 -28 -37z m40
-29 c9 -23 8 -24 -14 -24 -22 0 -23 1 -14 24 8 20 20 20 28 0z"/>
<path d="M6170 246 l0 -76 50 0 c55 0 69 17 18 22 -33 3 -33 4 -38 62 -3 35
-10 61 -17 64 -10 3 -13 -16 -13 -72z"/>
<path d="M6300 245 l0 -75 50 0 c28 0 50 5 50 10 0 6 -13 10 -28 10 -40 0 -52
17 -52 77 0 29 -4 53 -10 53 -6 0 -10 -32 -10 -75z"/>
<path d="M6480 311 c0 -5 9 -12 20 -16 15 -5 20 -17 22 -61 2 -30 8 -54 13
-54 6 0 11 24 13 54 2 44 7 56 22 61 38 12 20 25 -35 25 -30 0 -55 -4 -55 -9z"/>
<path d="M6620 244 c0 -51 4 -74 11 -72 7 2 11 29 11 66 -1 84 -1 82 -12 82
-6 0 -10 -32 -10 -76z"/>
<path d="M6700 300 c-45 -45 -13 -130 48 -130 26 0 62 25 62 43 0 14 -28 7
-34 -8 -7 -18 -37 -20 -54 -3 -17 17 -15 73 4 89 13 11 21 11 44 -3 34 -19 47
-12 23 14 -21 24 -68 23 -93 -2z"/>
<path d="M6844 307 c-10 -26 0 -130 14 -135 7 -2 12 6 12 22 0 39 21 43 50 8
15 -18 32 -32 38 -32 17 0 15 7 -13 44 -30 40 -31 48 -5 71 11 10 20 22 20 27
0 17 -29 7 -48 -17 -24 -30 -42 -32 -42 -6 0 25 -18 37 -26 18z"/>
<path d="M7007 313 c-4 -3 -7 -37 -7 -75 l0 -68 49 0 c59 0 78 17 24 22 -30 2
-38 7 -38 23 0 15 8 21 33 23 43 4 41 22 -3 22 -24 0 -35 5 -35 15 0 8 6 16
13 17 6 0 17 2 22 3 6 2 16 3 23 4 6 0 12 6 12 11 0 11 -83 14 -93 3z"/>
<path d="M7130 311 c0 -5 9 -11 19 -14 16 -4 20 -15 23 -63 4 -81 28 -86 28
-6 0 52 3 62 20 67 38 12 20 25 -35 25 -30 0 -55 -4 -55 -9z"/>
<path d="M390 300 c0 -5 7 -10 16 -10 8 0 12 5 9 10 -3 6 -10 10 -16 10 -5 0
-9 -4 -9 -10z"/>
<path d="M1008 293 c7 -3 16 -2 19 1 4 3 -2 6 -13 5 -11 0 -14 -3 -6 -6z"/>
<path d="M330 283 c0 -5 10 -18 23 -29 l22 -19 -20 25 c-11 14 -21 27 -22 29
-2 2 -3 0 -3 -6z"/>
<path d="M395 260 c-3 -5 -2 -10 4 -10 5 0 13 5 16 10 3 6 2 10 -4 10 -5 0
-13 -4 -16 -10z"/>
<path d="M798 263 c6 -2 18 -2 25 0 6 3 1 5 -13 5 -14 0 -19 -2 -12 -5z"/>
<path d="M840 248 c0 -4 9 -8 20 -8 11 0 20 4 20 9 0 6 -9 9 -20 8 -11 -1 -20
-5 -20 -9z"/>
</g>
</svg>
